<svg width="474" height="569" viewBox="0 0 474 569" fill="none" xmlns="http://www.w3.org/2000/svg">
<g clip-path="url(#clip0_25_223)">
<path d="M282.774 547.721C274.755 548.576 267.119 552.542 268.999 561.705H331.119C329.086 552.679 336.76 548.576 344.894 547.721C348.946 547.254 352.948 546.499 356.865 545.464V545.02C356.865 544.37 356.865 541.157 356.865 535.891H322.564C319.532 536.507 299.503 545.841 282.774 547.721Z" fill="white"/>
<path d="M331.119 561.705L419.675 562.047C419.675 560.987 419.675 551.345 419.905 535.891H384.682C382.303 536.336 369.987 542.011 356.826 545.43C352.909 546.466 348.907 547.22 344.855 547.686C336.76 548.576 329.086 552.679 331.119 561.705Z" fill="white"/>
<path d="M381.651 255.226C368.682 256.321 358.629 249.277 353.181 244.627L352.951 244.833C341.441 245.414 330.582 247.841 326.093 254.03H325.786C316.309 244.422 294.86 241.482 284.961 249.209H284.347C283.465 246.611 281.777 241.38 279.705 235.089H279.206C275.369 260.97 272.453 284.63 272.223 295.638L422.783 296.254C422.438 289.997 420.635 270.201 418.946 248.012L418.755 247.568C416.836 248.149 414.918 248.696 412.999 249.209C402.749 251.965 392.265 253.978 381.651 255.226Z" fill="white"/>
<path d="M415.34 186.402C420.657 191.767 425.664 197.37 430.342 203.19C433.68 208.215 427.502 214.335 417.642 220.285V220.079C416.414 204.968 415.646 192.933 415.34 186.402ZM402.486 227.875V228.422C402.486 228.422 413.306 233.755 412.807 248.388L413.115 249.278C414.995 248.765 416.951 248.218 418.869 247.637C442.39 240.49 469.018 227.327 472.854 203.942C474.351 194.642 468.595 187.257 464.03 178.915C458.313 168.384 425.162 130.057 417.066 124.211C407.896 117.373 376.549 113.407 376.549 113.407C375.841 110.674 374.075 108.253 371.56 106.569C367.723 105.03 345.469 104.449 332.769 105.714C332.031 105.787 331.315 105.984 330.658 106.295C329.213 107.023 327.973 108.035 327.035 109.257C326.097 110.478 325.486 111.874 325.249 113.339L260.022 102.261C272.799 80.2083 281.777 67.1819 298.391 41.5054V41.2318C297.136 38.5847 295.093 36.2935 292.482 34.6063C289.872 32.9189 286.794 31.8996 283.58 31.6587C276.29 38.7359 212.329 101.338 220.041 111.185C229.249 123.014 292.942 148.486 292.942 148.486C291.293 157.786 289.105 170.231 286.458 185.411V185.65C300.347 185.65 314.697 189.753 318.956 198.642H319.34C326.4 179.256 381.498 180.009 384.222 186.847C384.99 188.693 385.219 207.908 385.067 224.182H385.335C387.56 224.303 389.7 224.998 391.491 226.18C393.282 227.364 394.65 228.987 395.426 230.849C397.69 229.926 400.107 228.901 402.486 227.875Z" fill="white"/>
<path d="M419.867 568.475H331.311V561.978H419.867V568.475Z" stroke="white" stroke-width="0.86" stroke-linecap="round" stroke-linejoin="round"/>
<path d="M269.153 562.012H331.157V568.509H269.153V562.012Z" stroke="white" stroke-width="0.86" stroke-linecap="round" stroke-linejoin="round"/>
<path d="M281.777 547.755V484.88H149.941V522.181" stroke="white" stroke-width="0.86" stroke-miterlimit="10" stroke-linecap="round"/>
<path d="M149.941 554.423V568.509H281.777" stroke="white" stroke-width="0.86" stroke-miterlimit="10" stroke-linecap="round"/>
<path d="M32.8 504.813C47.4829 493.244 65.8672 486.07 85.3657 484.299" stroke="white" stroke-width="0.86" stroke-miterlimit="10" stroke-linecap="round"/>
<path d="M31.5721 545.464C28.4946 552.6 26.9207 560.18 26.9294 567.825H0.915177C0.886333 552.874 5.37959 538.194 13.9222 525.327" stroke="white" stroke-width="0.86" stroke-miterlimit="10" stroke-linecap="round"/>
<path d="M85.5191 507.651C70.5366 509.279 56.6376 515.447 46.1523 525.121" stroke="white" stroke-width="0.86" stroke-miterlimit="10" stroke-linecap="round"/>
<path d="M73.1643 487.102L78.3441 508.369" stroke="white" stroke-width="0.86" stroke-miterlimit="10" stroke-linecap="round"/>
<path d="M51.447 493.872L62.0753 514.283" stroke="white" stroke-width="0.86" stroke-miterlimit="10" stroke-linecap="round"/>
<path d="M34.2581 503.855L49.7208 522.113" stroke="white" stroke-width="0.86" stroke-miterlimit="10" stroke-linecap="round"/>
<path d="M27.7352 541.944L7.51465 537.054" stroke="white" stroke-width="0.86" stroke-miterlimit="10" stroke-linecap="round"/>
<path d="M27.8119 556.611L2.64185 554.764" stroke="white" stroke-width="0.86" stroke-miterlimit="10" stroke-linecap="round"/>
<path d="M176.876 528.746C163.521 547.208 142.571 560.265 118.529 565.111C94.4863 569.956 69.2699 566.204 48.299 554.659C27.3281 543.114 12.2768 524.701 6.37963 503.373C0.482444 482.046 4.21019 459.508 16.7616 440.605L38.9006 452.776C33.9618 459.555 30.5928 467.146 28.9908 475.101C27.389 483.057 27.5868 491.218 29.5726 499.104C31.5584 506.991 35.2921 514.445 40.5547 521.027C45.8173 527.611 52.5026 533.191 60.2185 537.44C67.9342 541.69 76.5249 544.524 85.4862 545.775C94.4476 547.026 103.6 546.668 112.404 544.725C121.208 542.781 129.488 539.289 136.758 534.456C144.027 529.621 150.139 523.542 154.737 516.574L176.876 528.746Z" stroke="white" stroke-width="0.86" stroke-miterlimit="10" stroke-linecap="round"/>
<path d="M7.86011 459.032L31.6105 465.836" stroke="white" stroke-width="0.86" stroke-miterlimit="10" stroke-linecap="round"/>
<path d="M3.52417 481.051L28.1572 481.905" stroke="white" stroke-width="0.86" stroke-miterlimit="10" stroke-linecap="round"/>
<path d="M4.71387 501.497L29.8072 496.231" stroke="white" stroke-width="0.86" stroke-miterlimit="10" stroke-linecap="round"/>
<path d="M11.8506 520.506L35.294 511.377" stroke="white" stroke-width="0.86" stroke-miterlimit="10" stroke-linecap="round"/>
<path d="M26.3154 540.336L44.8861 524.609" stroke="white" stroke-width="0.86" stroke-miterlimit="10" stroke-linecap="round"/>
<path d="M45.7688 554.936L58.6224 535.515" stroke="white" stroke-width="0.86" stroke-miterlimit="10" stroke-linecap="round"/>
<path d="M67.7925 563.586L75.9267 543.072" stroke="white" stroke-width="0.86" stroke-miterlimit="10" stroke-linecap="round"/>
<path d="M90.2766 567.996L93.231 545.635" stroke="white" stroke-width="0.86" stroke-miterlimit="10" stroke-linecap="round"/>
<path d="M110.766 567.552L108.387 544.781" stroke="white" stroke-width="0.86" stroke-miterlimit="10" stroke-linecap="round"/>
<path d="M131.984 562.456L123.043 540.917" stroke="white" stroke-width="0.86" stroke-miterlimit="10" stroke-linecap="round"/>
<path d="M135.859 535.037L153.087 551.858" stroke="white" stroke-width="0.86" stroke-miterlimit="10" stroke-linecap="round"/>
<path d="M147.37 525.668L167.705 539.071" stroke="white" stroke-width="0.86" stroke-miterlimit="10" stroke-linecap="round"/>
<path d="M209.682 393.148C243.488 399.264 273.558 416.315 294.094 441.014" stroke="white" stroke-width="0.86" stroke-miterlimit="10" stroke-linecap="round"/>
<path d="M228.214 434.895C222.191 432.063 215.868 429.772 209.335 428.057" stroke="white" stroke-width="0.86" stroke-miterlimit="10" stroke-linecap="round"/>
<path d="M277.134 484.915C270.546 468.208 258.525 453.628 242.602 443.031" stroke="white" stroke-width="0.86" stroke-miterlimit="10" stroke-linecap="round"/>
<path d="M291.446 546.217L281.853 543.448" stroke="white" stroke-width="0.86" stroke-miterlimit="10" stroke-linecap="round"/>
<path d="M317.038 519.993L283.696 518.728" stroke="white" stroke-width="0.86" stroke-miterlimit="10" stroke-linecap="round"/>
<path d="M308.021 491.889L281.93 497.497" stroke="white" stroke-width="0.86" stroke-miterlimit="10" stroke-linecap="round"/>
<path d="M300.079 464.469L273.144 475.204" stroke="white" stroke-width="0.86" stroke-miterlimit="10" stroke-linecap="round"/>
<path d="M286.266 432.467L258.947 455.647" stroke="white" stroke-width="0.86" stroke-miterlimit="10" stroke-linecap="round"/>
<path d="M257.643 410.791L241.105 435.818" stroke="white" stroke-width="0.86" stroke-miterlimit="10" stroke-linecap="round"/>
<path d="M225.067 398.037L213.096 428.33" stroke="white" stroke-width="0.86" stroke-miterlimit="10" stroke-linecap="round"/>
<path d="M250.967 513.223L262.477 523.48" stroke="white" stroke-width="0.86" stroke-miterlimit="10" stroke-linecap="round"/>
<path d="M262.631 513.223L251.12 523.48" stroke="white" stroke-width="0.86" stroke-miterlimit="10" stroke-linecap="round"/>
<path d="M152.588 272.321C156.9 272.321 161.115 273.461 164.699 275.597C168.285 277.732 171.078 280.768 172.727 284.317C174.375 287.868 174.804 291.774 173.96 295.543C173.116 299.311 171.036 302.771 167.985 305.485C164.933 308.2 161.046 310.047 156.816 310.792C152.586 311.537 148.203 311.148 144.222 309.673C140.24 308.198 136.838 305.704 134.448 302.505C132.058 299.307 130.787 295.55 130.794 291.707C130.794 289.159 131.359 286.635 132.454 284.28C133.55 281.927 135.156 279.788 137.179 277.987C139.204 276.187 141.607 274.759 144.251 273.787C146.895 272.816 149.728 272.317 152.588 272.321ZM140.578 302.375C140.732 302.517 140.917 302.631 141.121 302.708C141.326 302.786 141.545 302.826 141.768 302.826C141.99 302.826 142.21 302.786 142.414 302.708C142.619 302.631 142.804 302.517 142.957 302.375C145.183 300.357 148.866 297.075 152.588 293.793L162.219 302.375C162.363 302.518 162.541 302.632 162.74 302.709C162.938 302.786 163.153 302.824 163.369 302.819C163.695 302.811 164.01 302.72 164.278 302.556C164.547 302.393 164.756 302.164 164.882 301.896C165.008 301.629 165.044 301.335 164.987 301.05C164.929 300.765 164.781 300.501 164.559 300.289C163.6 299.469 159.38 295.673 154.928 291.707L164.521 283.159C164.679 283.028 164.807 282.868 164.897 282.692C164.987 282.515 165.037 282.325 165.044 282.131C165.051 281.937 165.015 281.745 164.939 281.563C164.862 281.381 164.746 281.216 164.598 281.074C164.449 280.932 164.27 280.818 164.073 280.739C163.874 280.659 163.661 280.614 163.443 280.608C163.226 280.602 163.009 280.634 162.805 280.702C162.602 280.77 162.415 280.873 162.257 281.006C161.911 281.28 157.423 285.314 152.588 289.622L142.919 281.006C142.604 280.737 142.185 280.586 141.749 280.586C141.313 280.586 140.893 280.737 140.578 281.006C140.424 281.142 140.302 281.305 140.218 281.483C140.134 281.663 140.091 281.855 140.091 282.048C140.091 282.242 140.134 282.435 140.218 282.613C140.302 282.792 140.424 282.955 140.578 283.091L150.209 291.638L140.54 300.22C140.25 300.52 140.1 300.906 140.122 301.3C140.143 301.696 140.334 302.067 140.655 302.341L140.578 302.375Z" fill="white"/>
<path d="M192.799 513.223L204.31 523.48" stroke="white" stroke-width="0.86" stroke-miterlimit="10" stroke-linecap="round"/>
<path d="M204.501 513.223L192.991 523.48" stroke="white" stroke-width="0.86" stroke-miterlimit="10" stroke-linecap="round"/>
<path d="M208.991 484.846V394.071H85.5193V543.858" stroke="white" stroke-width="0.86" stroke-miterlimit="10" stroke-linecap="round"/>
<path d="M21.788 443.031C17.1454 441.39 9.20295 429.082 15.764 418.517C22.8623 407.03 34.6417 407.611 39.4762 409.765C35.6393 417.697 26.0086 436.057 22.095 443.1" stroke="white" stroke-width="0.86" stroke-miterlimit="10" stroke-linecap="round"/>
<path d="M52.8286 416.671C57.4712 418.347 65.4136 430.62 58.8525 441.186C51.7542 452.673 39.9749 452.092 35.1404 449.972C38.9773 442.04 48.608 423.646 52.5216 416.637" stroke="white" stroke-width="0.86" stroke-miterlimit="10" stroke-linecap="round"/>
<path d="M266.123 539.721C262.592 539.721 262.592 560.815 259.062 560.815C255.532 560.815 255.532 539.721 251.964 539.721C248.396 539.721 248.434 560.815 244.904 560.815C241.374 560.815 241.374 539.721 237.844 539.721C234.315 539.721 234.315 560.815 230.784 560.815C227.255 560.815 227.216 539.721 223.686 539.721C220.157 539.721 220.157 560.815 216.588 560.815C213.02 560.815 213.058 539.721 209.528 539.721C205.997 539.721 205.96 560.815 202.43 560.815C198.899 560.815 198.861 539.721 195.331 539.721C191.801 539.721 191.763 560.815 188.233 560.815" stroke="white" stroke-width="0.86" stroke-miterlimit="10" stroke-linecap="round"/>
<path d="M186.238 484.64L165.058 448.502" stroke="white" stroke-width="0.86" stroke-miterlimit="10" stroke-linecap="round"/>
<path d="M162.718 448.331C157.971 448.331 154.123 444.902 154.123 440.673C154.123 436.443 157.971 433.014 162.718 433.014C167.465 433.014 171.313 436.443 171.313 440.673C171.313 444.902 167.465 448.331 162.718 448.331Z" stroke="white" stroke-width="0.86" stroke-miterlimit="10" stroke-linecap="round"/>
<path d="M257.758 484.64L236.578 448.502" stroke="white" stroke-width="0.86" stroke-miterlimit="10" stroke-linecap="round"/>
<path d="M234.238 448.331C229.491 448.331 225.643 444.902 225.643 440.673C225.643 436.443 229.491 433.014 234.238 433.014C238.984 433.014 242.832 436.443 242.832 440.673C242.832 444.902 238.984 448.331 234.238 448.331Z" stroke="white" stroke-width="0.86" stroke-miterlimit="10" stroke-linecap="round"/>
<path d="M137.355 532.096V434.314H85.9409" stroke="white" stroke-width="0.86" stroke-miterlimit="10" stroke-linecap="round"/>
<path d="M162.104 394.071C162.104 394.071 211.984 338.787 212.981 338C214.554 336.496 234.161 346.923 228.559 367.916C222.957 388.908 208.607 393.901 208.607 393.901" stroke="white" stroke-width="0.86" stroke-miterlimit="10" stroke-linecap="round"/>
<path d="M170.161 384.533C168.747 383.681 167.023 383.338 165.336 383.573C163.65 383.807 162.126 384.603 161.07 385.799C160.016 386.995 159.508 388.502 159.649 390.018C159.792 391.534 160.572 392.945 161.835 393.97" stroke="white" stroke-width="0.86" stroke-miterlimit="10" stroke-linecap="round"/>
<path d="M178.448 375.131C177.034 374.278 175.311 373.936 173.624 374.17C171.937 374.405 170.413 375.201 169.359 376.397C168.303 377.592 167.795 379.1 167.938 380.616C168.079 382.131 168.86 383.543 170.123 384.567" stroke="white" stroke-width="0.86" stroke-miterlimit="10" stroke-linecap="round"/>
<path d="M186.737 365.762C185.322 364.911 183.599 364.567 181.912 364.803C180.226 365.037 178.701 365.833 177.646 367.029C176.591 368.224 176.084 369.732 176.225 371.248C176.367 372.764 177.148 374.175 178.411 375.199" stroke="white" stroke-width="0.86" stroke-miterlimit="10" stroke-linecap="round"/>
<path d="M195.025 356.361C193.61 355.508 191.886 355.166 190.2 355.4C188.513 355.635 186.989 356.431 185.934 357.626C184.879 358.822 184.371 360.33 184.513 361.845C184.655 363.361 185.436 364.773 186.698 365.797" stroke="white" stroke-width="0.86" stroke-miterlimit="10" stroke-linecap="round"/>
<path d="M203.35 346.992C201.946 345.981 200.149 345.509 198.353 345.678C196.558 345.848 194.912 346.647 193.777 347.899C192.643 349.149 192.113 350.752 192.303 352.351C192.494 353.951 193.39 355.417 194.794 356.429" stroke="white" stroke-width="0.86" stroke-miterlimit="10" stroke-linecap="round"/>
<path d="M211.638 337.59C210.228 336.677 208.474 336.286 206.748 336.499C205.02 336.711 203.452 337.511 202.371 338.73C201.29 339.949 200.781 341.494 200.949 343.04C201.118 344.586 201.95 346.015 203.273 347.026" stroke="white" stroke-width="0.86" stroke-miterlimit="10" stroke-linecap="round"/>
<path d="M95.0344 386.482C97.4901 381.114 112.953 357.762 100.828 354.24C92.9241 351.916 72.3199 376.156 78.881 379.747C83.984 382.55 96.454 354.89 92.5788 349.42C85.7491 339.813 65.7205 362.753 64.8764 368.532C63.7636 374.891 68.7133 371.951 71.1689 368.293C76.5406 360.6 81.7971 347.095 73.8547 339.504" stroke="white" stroke-width="0.86" stroke-miterlimit="10" stroke-linecap="round"/>
<path d="M237.806 387.951C242.717 388.396 265.125 393.32 265.393 384.704C265.393 379.097 241.336 371.028 239.801 376.019C238.612 379.951 263.897 382.003 267.504 378.31C273.873 371.814 250.852 363.916 245.901 364.634C240.952 365.352 244.098 367.814 247.475 368.634C254.918 370.446 267.082 370.925 271.571 364.155" stroke="white" stroke-width="0.86" stroke-miterlimit="10" stroke-linecap="round"/>
<path d="M139.006 325.384H185.623C187.878 325.496 190.089 324.806 191.772 323.467C193.456 322.127 194.474 320.246 194.602 318.239V265.826C194.474 263.814 193.457 261.931 191.774 260.586C190.092 259.24 187.882 258.543 185.623 258.645H119.668C117.416 258.543 115.211 259.235 113.529 260.573C111.848 261.912 110.827 263.786 110.689 265.791V318.205C110.818 320.212 111.835 322.093 113.518 323.433C115.202 324.772 117.413 325.462 119.668 325.35H128.608" stroke="white" stroke-width="0.86" stroke-linecap="round" stroke-linejoin="round"/>
<path d="M128.339 321.179C128.339 321.179 130.795 336.975 135.13 339.983C139.466 342.992 138.545 318.136 138.545 318.136" stroke="white" stroke-width="0.86" stroke-linecap="round" stroke-linejoin="round"/>
<path d="M329.547 42.4284C329.336 42.4284 329.129 42.4658 328.935 42.5383C328.741 42.6109 328.567 42.7172 328.42 42.8511C328.273 42.9848 328.159 43.1435 328.082 43.3175C328.005 43.4916 327.968 43.6775 327.973 43.8644C327.973 44.0515 328.015 44.2365 328.097 44.4088C328.178 44.5812 328.297 44.7373 328.447 44.8679C328.598 44.9985 328.775 45.1011 328.971 45.1695C329.167 45.2379 329.375 45.2707 329.585 45.2662C329.814 45.2981 330.05 45.2853 330.273 45.2286C330.497 45.172 330.704 45.0729 330.881 44.938C331.058 44.8032 331.199 44.6359 331.296 44.4477C331.394 44.2594 331.444 44.0546 331.444 43.8473C331.444 43.6401 331.394 43.4353 331.296 43.247C331.199 43.0587 331.058 42.8914 330.881 42.7566C330.704 42.6218 330.497 42.5227 330.273 42.4661C330.05 42.4094 329.814 42.3966 329.585 42.4284H329.547Z" fill="white"/>
<path d="M351.071 41.813C350.86 41.8174 350.651 41.859 350.457 41.9353C350.264 42.0116 350.088 42.1212 349.943 42.2576C349.797 42.3942 349.682 42.555 349.606 42.731C349.529 42.907 349.493 43.0946 349.498 43.2831C349.498 43.4702 349.539 43.6553 349.621 43.8277C349.703 44 349.822 44.1561 349.973 44.2867C350.122 44.4173 350.3 44.5199 350.495 44.5882C350.691 44.6566 350.9 44.6896 351.109 44.685C351.321 44.6806 351.529 44.6389 351.723 44.5627C351.916 44.4864 352.092 44.3768 352.238 44.2403C352.383 44.1038 352.498 43.943 352.575 43.767C352.651 43.591 352.688 43.4034 352.683 43.2147C352.683 43.0278 352.641 42.8427 352.559 42.6703C352.478 42.498 352.358 42.3419 352.209 42.2113C352.058 42.0806 351.881 41.9781 351.685 41.9097C351.489 41.8414 351.281 41.8084 351.071 41.813Z" fill="white"/>
<path d="M357.786 453.05C357.44 489.496 356.942 520.95 356.749 535.891C356.749 541.157 356.749 544.37 356.749 545.02" stroke="white" stroke-width="0.86" stroke-miterlimit="10"/>
<path d="M395.963 308.186C395.465 322.956 406.975 331.812 421.171 335.334C425.068 336.284 429.07 336.857 433.104 337.043" stroke="white" stroke-width="0.86" stroke-miterlimit="10" stroke-linecap="round"/>
<path d="M336.375 325.452C338.504 368.531 345.732 411.289 357.939 453.015C366.035 482.077 375.474 509.873 384.529 535.515V535.857C382.15 536.301 369.834 541.977 356.673 545.396C352.757 546.431 348.753 547.185 344.702 547.653C336.645 548.507 329.047 552.473 330.928 561.636L419.483 561.978C419.483 560.918 419.483 551.277 419.714 535.823C420.213 493.257 421.325 406.756 420.98 335.265C420.98 321.862 420.98 309.007 420.635 297.041" stroke="white" stroke-width="0.86" stroke-linecap="round" stroke-linejoin="round"/>
<path d="M274.793 297.69C277.211 392.02 300.385 473.085 322.562 535.857C319.493 536.438 299.541 545.909 282.735 547.653C274.716 548.507 267.081 552.473 268.961 561.636H331.848" stroke="white" stroke-width="0.86" stroke-linecap="round" stroke-linejoin="round"/>
<path d="M321.104 535.891H322.563H356.174" stroke="white" stroke-width="0.86" stroke-miterlimit="10"/>
<path d="M384.645 535.891H384.682H419.714" stroke="white" stroke-width="0.86" stroke-miterlimit="10"/>
<path d="M314.237 37.8128C310.86 49.6425 329.585 77.4731 335.071 79.3535C335.739 79.5918 336.433 79.7638 337.143 79.8664C345.047 81.1314 355.023 74.8747 358.4 68.6863" stroke="white" stroke-width="0.86" stroke-miterlimit="10" stroke-linecap="round"/>
<path d="M368.759 31.4535C368.491 29.7782 368.222 28.0345 367.877 26.0173C367.399 23.0094 366.719 20.0296 365.843 17.0938C364.778 13.0954 362.705 9.36564 359.781 6.18714C348.616 -4.9246 336.414 3.34937 327.397 14.803C324.891 18.0302 322.622 21.3993 320.607 24.8891" stroke="white" stroke-width="0.86" stroke-miterlimit="10" stroke-linecap="round"/>
<path d="M371.522 105.988C371.522 85.747 372.712 66.6349 370.832 46.4287" stroke="white" stroke-width="0.86" stroke-miterlimit="10"/>
<path d="M337.258 79.0459V79.8664C336.446 88.8021 334.198 97.5874 330.582 105.953" stroke="white" stroke-width="0.86" stroke-miterlimit="10"/>
<path d="M365.613 35.0434C366.539 33.7789 367.649 32.6292 368.913 31.6244C377.891 24.7864 383.838 39.9667 380.155 44.3088C378.987 45.3903 377.487 46.1419 375.843 46.4702C374.199 46.7984 372.483 46.6888 370.909 46.1551C370.194 45.9582 369.502 45.7066 368.836 45.4029" stroke="white" stroke-width="0.86" stroke-miterlimit="10" stroke-linecap="round"/>
<path d="M367.07 25.7438L367.877 26.0173C372.864 27.4533 398.265 33.7101 398.572 26.0173C398.572 21.2991 382.725 18.6665 365.958 17.1963C348.462 15.6236 330.084 15.3159 328.05 15.1449" stroke="white" stroke-width="0.86" stroke-miterlimit="10"/>
<path d="M370.639 37.7786C372.276 39.1194 374.403 39.8848 376.625 39.9326" stroke="white" stroke-width="0.86" stroke-miterlimit="10" stroke-linecap="round"/>
<path d="M419.061 248.081C420.635 270.27 422.438 290.066 422.898 296.322L272.185 296.254C272.414 285.074 275.369 261.415 279.206 235.533" stroke="white" stroke-width="0.86" stroke-linecap="round" stroke-linejoin="round"/>
<path d="M415.34 186.402C415.646 192.933 416.414 204.968 417.449 219.976" stroke="white" stroke-width="0.86" stroke-linecap="round" stroke-linejoin="round"/>
<path d="M393.929 231.293L395.272 230.746C397.69 229.789 400.107 228.764 402.486 227.738C407.704 225.443 412.765 222.874 417.642 220.045C427.502 214.199 433.68 208.078 430.342 202.95C425.664 197.131 420.657 191.527 415.34 186.163C405.915 176.121 395.653 166.726 384.645 158.059" stroke="white" stroke-width="0.86" stroke-linejoin="round"/>
<path d="M299.426 18.051C299.695 17.6407 300.347 16.6834 301.229 15.5209C303.494 12.6148 307.062 8.27272 307.753 7.41797C310.17 4.40926 312.971 4.75116 316.539 6.15295C318.879 7.07607 326.86 9.16166 326.055 12.5122C324.941 16.9911 315.81 12.5122 314.045 12.7516C312.28 12.9909 310.554 16.6834 309.211 18.6664" stroke="white" stroke-width="0.86" stroke-miterlimit="10" stroke-linecap="round"/>
<path d="M305.757 19.6579C306.904 19.3398 308.07 19.0774 309.248 18.8715C315.273 17.9142 317.882 19.6579 319.033 21.8119C319.647 22.9059 320.184 23.9316 320.682 24.9232C322.02 27.0308 322.868 29.3561 323.177 31.7612C323.253 32.3303 323.131 32.9065 322.829 33.4122C322.526 33.9179 322.056 34.3289 321.485 34.5896C320.912 34.8503 320.263 34.9485 319.626 34.8707C318.988 34.7928 318.393 34.5429 317.92 34.1545" stroke="white" stroke-width="0.86" stroke-miterlimit="10" stroke-linecap="round"/>
<path d="M286.88 185.41C289.373 170.23 291.715 157.785 293.364 148.485C293.364 148.485 229.557 123.014 220.463 111.185C212.789 101.338 276.712 38.7359 284.002 31.6586L284.654 31.009C284.654 31.009 295.897 12.7857 293.978 7.31539C291.638 0.477406 298.16 0.477409 300.462 7.75986C301.462 10.2325 301.752 12.8888 301.306 15.4868" stroke="white" stroke-width="0.86" stroke-miterlimit="10" stroke-linecap="round"/>
<path d="M402.524 228.422C402.524 228.422 413.306 233.755 412.807 248.388" stroke="white" stroke-width="0.86" stroke-miterlimit="10" stroke-linecap="round"/>
<path d="M381.613 255.226C392.268 253.961 402.79 251.925 413.076 249.14C414.956 248.628 416.912 248.081 418.831 247.499C442.39 240.49 469.018 227.327 472.854 203.942C474.351 194.642 468.595 187.257 464.03 178.915C458.313 168.384 425.162 130.057 417.066 124.211C407.896 117.373 376.549 113.407 376.549 113.407C375.841 110.675 374.075 108.253 371.56 106.569C367.723 105.03 345.469 104.449 332.769 105.714C332.031 105.787 331.315 105.984 330.658 106.295C329.212 107.023 327.973 108.035 327.035 109.256C326.097 110.478 325.486 111.874 325.249 113.339L260.021 102.26C272.799 80.2082 281.777 67.1819 298.391 41.5054V41.2318C299.273 39.7275 303.8 32.1031 303.993 32.0347C304.184 31.9663 309.518 32.0347 309.518 32.0347L310.745 35.0777C310.992 35.8044 311.503 36.4375 312.197 36.877C312.892 37.3165 313.731 37.5375 314.582 37.5051C316.155 37.5051 317.575 36.7529 317.575 35.6931C317.626 35.2726 317.626 34.8485 317.575 34.428C317.21 31.5438 315.872 28.8258 313.738 26.6327C311.704 25.231 308.021 25.7438 304.99 25.9831" stroke="white" stroke-width="0.86" stroke-linecap="round" stroke-linejoin="round"/>
<path d="M283.848 31.6587C287.062 31.8996 290.14 32.9189 292.75 34.6063C295.361 36.2935 297.405 38.5847 298.659 41.2318" stroke="white" stroke-width="0.86" stroke-miterlimit="10" stroke-linecap="round"/>
<path d="M345.815 68.1735C344.597 67.3688 343.132 66.9147 341.617 66.872C340.102 66.8292 338.608 67.1998 337.335 67.9341" stroke="white" stroke-width="0.86" stroke-linecap="round" stroke-linejoin="round"/>
<path d="M347.388 34.3255C348.033 33.7854 348.798 33.3719 349.633 33.1118C350.47 32.8516 351.357 32.7505 352.239 32.8149C353.121 32.8794 353.978 33.1079 354.756 33.4859C355.533 33.8639 356.212 34.3828 356.749 35.0093" stroke="white" stroke-width="0.86" stroke-miterlimit="10" stroke-linecap="round"/>
<path d="M326.4 34.2229C327.039 33.6786 327.8 33.2612 328.634 32.9982C329.467 32.7353 330.353 32.6327 331.234 32.6973C332.115 32.762 332.971 32.9923 333.745 33.3731C334.518 33.7539 335.193 34.2766 335.724 34.9066" stroke="white" stroke-width="0.86" stroke-miterlimit="10" stroke-linecap="round"/>
<path d="M335.954 35.3511C337.911 39.5222 335.954 46.0867 335.148 50.4289C334.726 53.4034 334.112 59.1131 339.791 57.2669" stroke="white" stroke-width="0.86" stroke-miterlimit="10" stroke-linecap="round"/>
<path d="M319.532 199.052C319.485 198.91 319.42 198.773 319.34 198.642C315.081 189.753 300.732 185.719 286.842 185.65C279.093 185.424 271.396 186.855 264.395 189.821" stroke="white" stroke-width="0.86" stroke-linecap="round" stroke-linejoin="round"/>
<path d="M384.222 186.847C381.498 180.009 326.4 179.359 319.723 198.711L325.978 252.868" stroke="white" stroke-width="0.86" stroke-linecap="round" stroke-linejoin="round"/>
<path d="M263.858 190.061C265.624 192.933 274.103 218.301 279.782 235.533C281.853 241.824 283.619 247.055 284.424 249.653C284.401 249.732 284.401 249.814 284.424 249.893" stroke="white" stroke-width="0.86" stroke-linecap="round" stroke-linejoin="round"/>
<path d="M285 249.516C294.899 241.79 316.348 244.73 325.825 254.337" stroke="white" stroke-width="0.86" stroke-linecap="round" stroke-linejoin="round"/>
<path d="M384.682 236.901C384.682 234.576 384.682 231.977 384.682 229.242C384.682 227.635 384.682 225.823 384.682 224.251C384.682 207.976 384.682 188.761 383.838 186.915" stroke="white" stroke-width="0.86" stroke-linecap="round" stroke-linejoin="round"/>
<path d="M326.131 254.166C330.582 247.978 341.478 245.55 352.989 244.969" stroke="white" stroke-width="0.86" stroke-linecap="round" stroke-linejoin="round"/>
<path d="M360.471 232.456C357.325 229.448 360.817 224.695 365.038 227.772C371.061 232.183 378.965 236.901 384.682 236.867H386.102H386.947" stroke="white" stroke-width="0.86" stroke-linejoin="round"/>
<path d="M371.292 248.184C364.763 244.749 358.721 240.628 353.297 235.909L352.875 235.464C351.455 233.789 351.186 228.626 355.79 229.447C357.577 230.169 359.182 231.204 360.509 232.49C365.32 236.48 370.845 239.728 376.855 242.098" stroke="white" stroke-width="0.86" stroke-linecap="round" stroke-linejoin="round"/>
<path d="M381.92 255.226H381.651C368.682 256.321 358.629 249.278 353.182 244.628C351.301 242.987 350.035 241.619 349.345 241.209C347.004 238.679 348.846 234.746 353.182 235.977" stroke="white" stroke-width="0.86" stroke-linejoin="round"/>
<path d="M385.949 237.482C385.971 237.231 385.971 236.981 385.949 236.73C386.335 235.466 386.422 234.145 386.204 232.85C385.986 231.555 385.468 230.315 384.682 229.208" stroke="white" stroke-width="0.86" stroke-linejoin="round"/>
<path d="M395.771 231.908C395.771 231.67 395.503 231.294 395.272 230.883C394.496 229.021 393.129 227.398 391.337 226.214C389.546 225.032 387.408 224.337 385.181 224.216" stroke="white" stroke-width="0.86" stroke-linejoin="round"/>
<path d="M393.929 231.293L395.272 230.746C397.69 229.789 400.107 228.764 402.486 227.738C407.704 225.443 412.765 222.874 417.642 220.045C427.502 214.199 433.68 208.078 430.342 202.95C425.664 197.131 420.657 191.527 415.34 186.163C405.915 176.121 395.653 166.726 384.645 158.059" stroke="white" stroke-width="0.86" stroke-linecap="round" stroke-linejoin="round"/>
<path d="M361.507 541.225C357.134 543.139 349.383 547.379 344.893 547.721C336.836 548.336 331.426 551.858 331.273 561.705" stroke="white" stroke-width="0.86" stroke-linecap="square" stroke-linejoin="round"/>
</g>
<defs>
<clipPath id="clip0_25_223">
<rect width="474" height="569" fill="white"/>
</clipPath>
</defs>
</svg>
